<svg width="1680" height="940" viewBox="0 0 1680 940" fill="none" xmlns="http://www.w3.org/2000/svg" font-family="ui-monospace, SFMono-Regular, Menlo, Consolas, 'Liberation Mono', monospace">
  <defs>
    <marker id="arrow" markerWidth="10" markerHeight="10" refX="7" refY="5" orient="auto" markerUnits="userSpaceOnUse">
      <path d="M0 1 L8 5 L0 9" fill="none" stroke="#E7EAEE" stroke-width="2" stroke-linecap="round" stroke-linejoin="round"/>
    </marker>
  </defs>

  <rect width="1680" height="940" fill="#0A0E16"/>

  <!-- ===================== TOP ROW BOXES ===================== -->
  <!-- Box 1: capture -->
  <rect x="70" y="150" width="300" height="250" rx="20" fill="none" stroke="#E7EAEE" stroke-width="2"/>
  <g stroke="#E7EAEE" stroke-width="3.5" fill="none" stroke-linecap="round" stroke-linejoin="round">
    <rect x="208" y="180" width="24" height="42" rx="12"/>
    <path d="M198 210 a22 22 0 0 0 44 0"/>
    <path d="M220 232 v16 M209 248 h22"/>
  </g>
  <text x="220" y="300" text-anchor="middle" fill="#F2F4F7" font-size="29">AVAudio</text>
  <text x="220" y="335" text-anchor="middle" fill="#F2F4F7" font-size="29">capture</text>
  <text x="220" y="370" text-anchor="middle" fill="#F2F4F7" font-size="29">engine</text>

  <!-- Box 2: FluidAudio -->
  <rect x="650" y="150" width="400" height="250" rx="20" fill="none" stroke="#E7EAEE" stroke-width="2"/>
  <g stroke="#E7EAEE" stroke-width="5" stroke-linecap="round">
    <line x1="804" y1="201" x2="804" y2="221"/>
    <line x1="818" y1="191" x2="818" y2="231"/>
    <line x1="832" y1="176" x2="832" y2="246"/>
    <line x1="846" y1="186" x2="846" y2="236"/>
    <line x1="860" y1="166" x2="860" y2="256"/>
    <line x1="874" y1="186" x2="874" y2="236"/>
    <line x1="888" y1="176" x2="888" y2="246"/>
    <line x1="902" y1="194" x2="902" y2="228"/>
  </g>
  <text x="850" y="300" text-anchor="middle" fill="#F2F4F7" font-size="29">FluidAudio</text>
  <text x="850" y="335" text-anchor="middle" fill="#F2F4F7" font-size="29">Parakeet ASR +</text>
  <text x="850" y="370" text-anchor="middle" fill="#F2F4F7" font-size="29">diarization</text>

  <!-- Box 3: LM Studio -->
  <rect x="1240" y="150" width="370" height="250" rx="20" fill="none" stroke="#E7EAEE" stroke-width="2"/>
  <g stroke="#E7EAEE" stroke-width="3" fill="none" stroke-linecap="round" stroke-linejoin="round">
    <path d="M1425 176 c-14 -10 -34 -2 -34 14 c-12 2 -16 16 -8 24 c-6 10 2 22 14 22 c2 10 16 14 24 6"/>
    <path d="M1425 176 c14 -10 34 -2 34 14 c12 2 16 16 8 24 c6 10 -2 22 -14 22 c-2 10 -16 14 -24 6"/>
    <path d="M1425 176 v66"/>
    <path d="M1409 200 h8 M1433 200 h8 M1413 224 h6 M1437 224 h6"/>
  </g>
  <text x="1425" y="300" text-anchor="middle" fill="#F2F4F7" font-size="29">LM Studio</text>
  <text x="1425" y="333" text-anchor="middle" fill="#9AA4B2" font-size="24">(local, OpenAI-</text>
  <text x="1425" y="364" text-anchor="middle" fill="#9AA4B2" font-size="24">compatible API)</text>

  <!-- ===================== TOP ARROWS ===================== -->
  <line x1="370" y1="280" x2="642" y2="280" stroke="#E7EAEE" stroke-width="2.5" marker-end="url(#arrow)"/>
  <text x="506" y="252" text-anchor="middle" fill="#C7CDD6" font-size="25">mic + system audio</text>
  <text x="506" y="320" text-anchor="middle" fill="#8A93A2" font-size="23">(16 kHz, stereo)</text>

  <line x1="1050" y1="262" x2="1232" y2="262" stroke="#E7EAEE" stroke-width="2.5" marker-end="url(#arrow)"/>
  <text x="1141" y="240" text-anchor="middle" fill="#C7CDD6" font-size="25">text</text>

  <!-- ===================== MIDDLE ROW ===================== -->
  <line x1="850" y1="400" x2="850" y2="498" stroke="#E7EAEE" stroke-width="2.5" marker-end="url(#arrow)"/>
  <text x="850" y="548" text-anchor="middle" fill="#F2F4F7" font-size="28">speaker-labeled</text>
  <text x="850" y="582" text-anchor="middle" fill="#F2F4F7" font-size="28">transcript</text>

  <line x1="1425" y1="400" x2="1425" y2="498" stroke="#E7EAEE" stroke-width="2.5" marker-end="url(#arrow)"/>
  <text x="1425" y="548" text-anchor="middle" fill="#F2F4F7" font-size="28">summaries · notes · chat</text>
  <text x="1425" y="582" text-anchor="middle" fill="#F2F4F7" font-size="28">action items · live assistant</text>

  <line x1="1012" y1="566" x2="1150" y2="566" stroke="#E7EAEE" stroke-width="2.5" marker-end="url(#arrow)"/>

  <!-- ===================== BOTTOM BOX ===================== -->
  <line x1="850" y1="612" x2="850" y2="708" stroke="#E7EAEE" stroke-width="2.5" marker-end="url(#arrow)"/>
  <line x1="1425" y1="612" x2="1425" y2="708" stroke="#E7EAEE" stroke-width="2.5" marker-end="url(#arrow)"/>

  <rect x="130" y="720" width="1420" height="150" rx="20" fill="none" stroke="#E7EAEE" stroke-width="2"/>
  <g stroke="#E7EAEE" stroke-width="3" fill="none" stroke-linecap="round" stroke-linejoin="round">
    <ellipse cx="285" cy="773" rx="34" ry="13"/>
    <path d="M251 773 v40 a34 13 0 0 0 68 0 v-40"/>
    <path d="M251 793 a34 13 0 0 0 68 0"/>
  </g>
  <text x="372" y="806" fill="#F2F4F7" font-size="30">SwiftData  +  on-device embeddings (NLEmbedding) for RAG</text>
</svg>
